<mxfile host="Electron" modified="2024-04-30T14:07:00.956Z" agent="Mozilla/5.0 (Windows NT 10.0; Win64; x64) AppleWebKit/537.36 (KHTML, like Gecko) draw.io/22.0.0 Chrome/114.0.5735.289 Electron/25.8.3 Safari/537.36" etag="oP3ZMUQpqqvIkjavpMDD" version="22.0.0" type="device">
  <diagram name="Страница — 1" id="dB_R7yS8uTx0064w4jTY">
    <mxGraphModel dx="915" dy="683" grid="1" gridSize="10" guides="1" tooltips="1" connect="1" arrows="1" fold="1" page="1" pageScale="1" pageWidth="827" pageHeight="1169" math="0" shadow="0">
      <root>
        <mxCell id="0" />
        <mxCell id="1" parent="0" />
        <mxCell id="qS8Lk107YrMpu6UP8ggp-6" style="edgeStyle=orthogonalEdgeStyle;rounded=0;orthogonalLoop=1;jettySize=auto;html=1;entryX=0.5;entryY=0;entryDx=0;entryDy=0;" parent="1" source="qS8Lk107YrMpu6UP8ggp-1" target="qS8Lk107YrMpu6UP8ggp-2" edge="1">
          <mxGeometry relative="1" as="geometry" />
        </mxCell>
        <mxCell id="qS8Lk107YrMpu6UP8ggp-1" value="Arr[] = a,b,c,d,&lt;br&gt;i = 0,&lt;br&gt;summ = 0" style="rounded=1;whiteSpace=wrap;html=1;" parent="1" vertex="1">
          <mxGeometry x="340" y="390" width="120" height="60" as="geometry" />
        </mxCell>
        <mxCell id="qS8Lk107YrMpu6UP8ggp-4" style="edgeStyle=orthogonalEdgeStyle;rounded=0;orthogonalLoop=1;jettySize=auto;html=1;entryX=0.5;entryY=0;entryDx=0;entryDy=0;" parent="1" source="qS8Lk107YrMpu6UP8ggp-2" target="qS8Lk107YrMpu6UP8ggp-3" edge="1">
          <mxGeometry relative="1" as="geometry" />
        </mxCell>
        <mxCell id="qS8Lk107YrMpu6UP8ggp-8" style="edgeStyle=orthogonalEdgeStyle;rounded=0;orthogonalLoop=1;jettySize=auto;html=1;" parent="1" source="qS8Lk107YrMpu6UP8ggp-2" target="qS8Lk107YrMpu6UP8ggp-7" edge="1">
          <mxGeometry relative="1" as="geometry" />
        </mxCell>
        <mxCell id="qS8Lk107YrMpu6UP8ggp-2" value="for i &amp;lt; Arr.lenth" style="rhombus;whiteSpace=wrap;html=1;" parent="1" vertex="1">
          <mxGeometry x="345" y="520" width="110" height="110" as="geometry" />
        </mxCell>
        <mxCell id="qS8Lk107YrMpu6UP8ggp-5" style="edgeStyle=orthogonalEdgeStyle;rounded=0;orthogonalLoop=1;jettySize=auto;html=1;entryX=0;entryY=0.5;entryDx=0;entryDy=0;exitX=0;exitY=0.5;exitDx=0;exitDy=0;" parent="1" source="qS8Lk107YrMpu6UP8ggp-3" target="qS8Lk107YrMpu6UP8ggp-2" edge="1">
          <mxGeometry relative="1" as="geometry" />
        </mxCell>
        <mxCell id="qS8Lk107YrMpu6UP8ggp-3" value="summ = summ + arr[i],&lt;br&gt;i++" style="rounded=0;whiteSpace=wrap;html=1;" parent="1" vertex="1">
          <mxGeometry x="320" y="680" width="160" height="80" as="geometry" />
        </mxCell>
        <mxCell id="qS8Lk107YrMpu6UP8ggp-9" style="edgeStyle=orthogonalEdgeStyle;rounded=0;orthogonalLoop=1;jettySize=auto;html=1;" parent="1" source="qS8Lk107YrMpu6UP8ggp-7" target="qS8Lk107YrMpu6UP8ggp-10" edge="1">
          <mxGeometry relative="1" as="geometry">
            <mxPoint x="680" y="575" as="targetPoint" />
          </mxGeometry>
        </mxCell>
        <mxCell id="qS8Lk107YrMpu6UP8ggp-7" value="result = summ/Arr.lenth" style="shape=parallelogram;perimeter=parallelogramPerimeter;whiteSpace=wrap;html=1;fixedSize=1;" parent="1" vertex="1">
          <mxGeometry x="497.5" y="533.75" width="165" height="82.5" as="geometry" />
        </mxCell>
        <mxCell id="qS8Lk107YrMpu6UP8ggp-10" value="result" style="shape=document;whiteSpace=wrap;html=1;boundedLbl=1;" parent="1" vertex="1">
          <mxGeometry x="520" y="680" width="120" height="80" as="geometry" />
        </mxCell>
      </root>
    </mxGraphModel>
  </diagram>
</mxfile>
